<svg xmlns="http://www.w3.org/2000/svg" width="1200" height="630" viewBox="0 0 1200 630">
  <rect width="1200" height="630" fill="#f5f3ed"/>
  <path d="M54 91H1146M54 556H1146" stroke="#d9d9d0"/>
  <circle cx="64" cy="47" r="5" fill="#ed603b"/>
  <text x="82" y="53" font-family="Arial,sans-serif" font-size="17" letter-spacing="2" fill="#bd3e20">MD JAHIRUL ISLAM / SENIOR iOS ENGINEER</text>
  <text x="58" y="218" font-family="Arial,sans-serif" font-size="92" letter-spacing="-5" fill="#20211e">I build</text>
  <text x="58" y="322" font-family="Georgia,serif" font-style="italic" font-size="98" letter-spacing="-4" fill="#bd3e20">iOS apps</text>
  <text x="58" y="423" font-family="Arial,sans-serif" font-size="92" letter-spacing="-5" fill="#20211e">people keep<tspan fill="#ed603b">.</tspan></text>
  <text x="60" y="510" font-family="Arial,sans-serif" font-size="21" fill="#65665f">Swift · SwiftUI · Daraz · Beeda · Independent App Store apps</text>
  <rect x="848" y="134" width="296" height="382" rx="20" fill="#242720"/>
  <circle cx="874" cy="162" r="5" fill="#ed603b"/>
  <text x="891" y="168" font-family="Arial,sans-serif" font-size="12" letter-spacing="2" fill="#f5f3ed">JAHIRUL / iOS</text>
  <rect x="919" y="205" width="155" height="311" rx="28" fill="#0b0d0c"/>
  <rect x="926" y="212" width="141" height="304" rx="22" fill="#dee2f5"/>
  <rect x="959" y="220" width="74" height="16" rx="8" fill="#0b0d0c"/>
  <rect x="947" y="268" width="99" height="96" rx="17" fill="#5055b9"/>
  <rect x="947" y="382" width="99" height="12" rx="5" fill="#999ec8"/>
  <rect x="947" y="406" width="74" height="12" rx="5" fill="#999ec8"/>
  <text x="60" y="598" font-family="Arial,sans-serif" font-size="17" fill="#65665f">mohammadjahirul.github.io</text>
</svg>
